<!-- Generated by IcoMoon.io -->
<svg version="1.1" xmlns="http://www.w3.org/2000/svg" width="32px" height="32px" viewBox="0 0 384 448">
<path fill="#eee" d="M377.75 264c0 0.5 0 1.25-0.25 1.75-21.25 88.5-94.25 150.25-186.5 150.25-48.75 0-96-19.25-131.5-53l-32.25 32.25c-3 3-7 4.75-11.25 4.75-8.75 0-16-7.25-16-16v-112c0-8.75 7.25-16 16-16h112c8.75 0 16 7.25 16 16 0 4.25-1.75 8.25-4.75 11.25l-34.25 34.25c23.5 22 54.75 34.5 87 34.5 44.5 0 85.75-23 109-61 6-9.75 9-19.25 13.25-29.25 1.25-3.5 3.75-5.75 7.5-5.75h48c4.5 0 8 3.75 8 8zM384 64v112c0 8.75-7.25 16-16 16h-112c-8.75 0-16-7.25-16-16 0-4.25 1.75-8.25 4.75-11.25l34.5-34.5c-23.75-22-55-34.25-87.25-34.25-44.5 0-85.75 23-109 61-6 9.75-9 19.25-13.25 29.25-1.25 3.5-3.75 5.75-7.5 5.75h-49.75c-4.5 0-8-3.75-8-8v-1.75c21.5-88.75 95.25-150.25 187.5-150.25 49 0 96.75 19.5 132.25 53l32.5-32.25c3-3 7-4.75 11.25-4.75 8.75 0 16 7.25 16 16z"></path>
</svg>
